<?xml version="1.0" encoding="iso-8859-1"?>
<!-- Uploaded to: SVG Repo, www.svgrepo.com, Generator: SVG Repo Mixer Tools -->
<svg version="1.1" id="Layer_1" xmlns="http://www.w3.org/2000/svg" xmlns:xlink="http://www.w3.org/1999/xlink" 
	 viewBox="0 0 511.999 511.999" xml:space="preserve">
<rect x="445.557" y="312.94" style="fill:#6E5B3F;" width="54.368" height="54.368"/>
<polygon style="fill:#A3875E;" points="499.925,271.249 499.925,312.94 445.557,312.94 66.442,312.94 12.074,312.94 12.074,271.249 
	71.368,271.249 202.464,271.249 309.522,271.249 440.631,271.249 "/>
<path style="fill:#CCC2B8;" d="M474.534,237.346c0,9.357-3.791,17.833-9.925,23.978c-6.133,6.133-14.609,9.925-23.978,9.925H309.522
	v-67.806h131.109C459.357,203.443,474.534,218.62,474.534,237.346z"/>
<rect x="202.464" y="203.443" style="fill:#B3B3B3;" width="107.058" height="67.806"/>
<path style="fill:#CCC2B8;" d="M202.464,203.443v67.806H71.368c-18.726,0-33.903-15.177-33.903-33.903
	c0-9.357,3.791-17.833,9.925-23.978c6.133-6.133,14.609-9.925,23.978-9.925h9.514h92.63H202.464z"/>
<path style="fill:#FFF3E6;" d="M183.34,155.776c6.846,6.846,11.084,16.312,11.084,26.755c0,11.555-9.369,20.912-20.912,20.912
	h-92.63c-5.771,0-11.011-2.342-14.79-6.121c-3.779-3.791-6.121-9.007-6.121-14.79c0-20.9,16.939-37.839,37.851-37.839h58.751
	C167.016,144.692,176.482,148.93,183.34,155.776z"/>
<rect x="12.074" y="312.94" style="fill:#6E5B3F;" width="54.368" height="54.368"/>
<path d="M499.926,259.175h-18.81c3.585-6.632,5.492-14.085,5.492-21.829c0-25.351-20.626-45.977-45.977-45.977h-131.11H205.285
	c0.785-2.816,1.212-5.777,1.212-8.838c0-13.332-5.192-25.864-14.627-35.3c-9.439-9.422-21.975-14.613-35.296-14.613H97.823
	c-27.529,0-49.926,22.391-49.926,49.913c0,4.787,1.023,9.418,2.952,13.655c-4.384,2.189-8.438,5.085-12.005,8.651
	c-8.675,8.692-13.453,20.237-13.453,32.507c0,7.895,2.002,15.331,5.523,21.829h-18.84C5.407,259.174,0,264.58,0,271.248v41.691
	v54.368c0,6.668,5.407,12.074,12.074,12.074h54.368c6.667,0,12.074-5.405,12.074-12.074v-42.294h354.968v42.294
	c0,6.668,5.407,12.074,12.074,12.074h54.368c6.667,0,12.074-5.405,12.074-12.074v-54.368v-41.691
	C512,264.581,506.593,259.175,499.926,259.175z M214.538,215.517h82.91v43.659h-82.91V215.517z M97.823,156.766h58.751
	c6.88,0,13.357,2.683,18.23,7.547c4.867,4.867,7.547,11.336,7.547,18.217c0,4.874-3.965,8.838-8.838,8.838H80.882
	c-2.365,0-4.586-0.919-6.239-2.572c-1.677-1.682-2.599-3.907-2.599-6.266C72.044,168.325,83.608,156.766,97.823,156.766z
	 M49.539,237.346c0-5.83,2.272-11.317,6.388-15.441c4.118-4.12,9.602-6.388,15.441-6.388h9.514h92.63h16.879v43.659H71.368
	C59.332,259.175,49.539,249.382,49.539,237.346z M202.464,283.323h107.058c6.667,0,12.074-5.405,12.074-12.074v-55.732h119.035
	c12.038,0,21.829,9.792,21.829,21.829c0,5.83-2.272,11.317-6.388,15.441c-4.118,4.12-9.602,6.388-15.441,6.388h-45.18
	c-6.667,0-12.074,5.405-12.074,12.074c0,6.668,5.407,12.074,12.074,12.074h92.4v17.543h-42.294H66.442H24.147v-17.543H202.464z
	 M54.368,355.234H24.147v-30.221h30.221V355.234z M487.853,355.234h-30.221v-30.221h30.221V355.234z"/>
<path d="M353.797,283.323h5.433c6.667,0,12.074-5.405,12.074-12.074c0-6.668-5.407-12.074-12.074-12.074h-5.433
	c-6.667,0-12.074,5.405-12.074,12.074C341.723,277.917,347.13,283.323,353.797,283.323z"/>
</svg>